PathFileType	4	(X/Y/Z)	C:/Users/beibeiliu/ov580/test_trc/User2\sequence.42_training_dense_left.trc
DataRate	CameraRate	NumFrames	NumMarkers	Units	OrigDataRate	OrigDataStartFrame	OrigNumFrames
120	120	21	19	mm	120	126	200
Frame#	Time	ThumbCMC			ThumbMCP			ThumbIP			ThumbTip			IndexMCP			IndexPIP			IndexTip			MiddleMCP			MiddlePIP			MiddleTip			RingMCP			RingPIP			RingTip			PinkyMCP			PinkyPIP			PinkyTip			BackHand1			BackHand2			BackHand3	
		X0	Y0	Z0	X1	Y1	Z1	X2	Y2	Z2	X3	Y3	Z3	X4	Y4	Z4	X5	Y5	Z5	X6	Y6	Z6	X7	Y7	Z7	X8	Y8	Z8	X9	Y9	Z9	X10	Y10	Z10	X11	Y11	Z11	X12	Y12	Z12	X13	Y13	Z13	X14	Y14	Z14	X15	Y15	Z15	X16	Y16	Z16	X17	Y17	Z17	X18	Y18	Z18	
125	1.04167	-240.099	60.0861	7.82465	-209.528	77.451	-5.79676	-184.754	80.6858	-33.3046	-183.552	56.3078	-54.6457	-264.502	64.4981	-71.0888	-244.565	74.2935	-96.8154	-212.292	67.4282	-77.4059	-265.815	40.3321	-89.3719	-238.064	45.625	-109.54	-210.314	46.9193	-79.5905	-254.075	16.3443	-88.0107	-227.366	30.4725	-103.062	-208.364	28.917	-71.936	-237.849	-5.77986	-76.3746	-212.676	8.76415	-95.0833	-193.098	18.1837	-71.4369	-264.975	0.0338707	-32.544	-270.006	-7.2656	-1.26376	-272.377	30.7788	-6.54908	
126	1.05	-237.364	59.936	8.73022	-209.824	75.3199	-3.24391	-181.791	82.9707	-31.8638	-179.87	58.025	-51.2148	-260.115	64.7986	-75.989	-239.356	72.1271	-97.8181	-207.006	62.3959	-77.6074	-261.332	34.9103	-84.6592	-238.255	44.9385	-111.326	-206.008	45.6494	-85.6833	-251.376	14.2885	-90.8163	-227.225	23.0522	-104.34	-205.359	26.8076	-77.0266	-236.707	-11.0431	-75.2399	-214.301	2.4749	-95.5091	-190.989	13.1804	-72.788	-264.614	1.33127	-33.8861	-267.541	-7.52492	2.69199	-271.482	29.6624	-10.6374	
127	1.05833	-235.356	59.729	10.9708	-205.151	79.7402	2.65747	-180.093	83.3928	-22.3569	-174.832	60.1566	-47.4898	-251.354	59.7623	-75.0809	-232.661	67.8625	-97.6391	-199.191	58.8552	-78.7945	-254.802	37.3982	-87.5043	-228.401	39.017	-110.236	-197.814	38.0677	-82.9904	-247.476	13.0195	-86.3751	-224.327	16.2407	-104.36	-199.136	23.8549	-75.086	-234.467	-14.4179	-71.9648	-209.58	-8.6539	-94.4836	-186.924	6.26869	-73.3534	-260.214	1.79207	-27.6792	-268.674	-5.00822	-1.30501	-266.553	30.2824	-11.8663	
128	1.06667	-231.753	59.299	14.1978	-204.028	80.7626	8.69449	-176.168	89.1949	-13.4031	-165.757	70.1797	-34.5295	-240.551	56.3923	-70.1912	-220.507	61.9186	-96.9606	-191.363	59.2205	-81.1289	-245.209	33.5379	-85.8716	-219.912	36.8508	-109.638	-190.301	31.8596	-82.3151	-241.364	10.5728	-84.1362	-220.266	13.4678	-103.009	-191.764	17.9001	-75.2296	-230.775	-13.68	-64.5019	-207.673	-13.7632	-91.888	-182.721	0.845543	-71.8102	-252.864	1.72963	-29.2426	-266.227	-4.7986	1.71122	-261.155	33.9048	-7.61128	
129	1.075	-227.948	60.6636	17.4146	-202.244	81.2644	13.527	-173.358	94.8288	-6.60516	-161.745	79.1958	-23.6766	-231.13	59.6565	-65.4613	-209.889	62.03	-94.5969	-181.565	57.1438	-80.1407	-238.052	32.2114	-80.054	-213.102	36.8428	-106.446	-182.479	31.6583	-81.5622	-235.099	10.7471	-79.4516	-213.984	12.5943	-100.946	-185.656	15.0339	-76.6111	-228.281	-15.6998	-61.1007	-208.062	-12.7475	-89.4028	-178.722	-2.63414	-73.7468	-248.315	3.31142	-26.9565	-262.769	-0.275938	1.93486	-253.496	37.3936	-8.47589	
130	1.08333	-227.395	61.8483	16.5978	-203.38	86.0909	13.3846	-175.006	99.2374	-2.04392	-159.559	87.1086	-24.3315	-229.84	61.7643	-63.9237	-211.727	62.6778	-94.5134	-178.736	55.8046	-79.1162	-237.017	38.905	-78.9165	-214.667	40.1525	-106.582	-181.806	35.6949	-84.7448	-235.073	11.2122	-73.9115	-212.431	19.1486	-99.9367	-183.211	18.3347	-76.8623	-227.446	-11.4119	-61.892	-210.348	-11.2298	-88.4568	-179.961	-4.72655	-76.3569	-247.023	3.86561	-30.4889	-259.297	-0.964932	1.55545	-253.39	36.9496	-5.65205	
131	1.09167	-230.028	59.3313	17.1137	-207.089	84.3683	13.1529	-180.621	100.577	-0.905155	-163.895	87.8346	-24.8401	-233.965	61.9363	-67.5609	-219.352	66.3286	-94.6455	-185.683	56.6027	-84.0048	-241.487	39.3001	-81.4248	-217.592	42.0368	-108.013	-183.448	35.4771	-84.967	-237.404	13.0252	-77.4924	-217.013	15.9914	-103.061	-187.006	16.3051	-83.8242	-229.31	-9.12049	-62.2627	-212.27	-13.2877	-90.3326	-179.507	-5.69444	-79.5662	-248.639	1.95752	-28.4094	-262.973	0.808011	0.509236	-255.39	35.0603	-6.35345	
132	1.1	-231.776	60.8666	14.4597	-207.526	87.4168	11.9227	-182.145	101.29	-6.37941	-167.129	87.8788	-27.8539	-237.94	60.5113	-67.9996	-222.636	64.5748	-96.7938	-189.591	59.6311	-85.6966	-244.549	39.5635	-83.9318	-220.417	39.8027	-109.627	-186.25	35.8017	-85.1331	-241.526	17.6662	-80.0427	-219.892	17.0578	-104.186	-190.526	20.9607	-85.4803	-232.582	-8.99697	-64.7336	-214.252	-11.0283	-93.196	-184.319	-4.62856	-81.1162	-249.228	5.61306	-31.1306	-264.765	-0.037369	3.26094	-257.113	38.7651	-11.8748	
133	1.10833	-231.382	64.1866	15.0827	-208.9	86.4474	13.6481	-182.281	97.8947	-7.23213	-169.798	81.6637	-34.564	-240.839	63.6692	-66.3731	-226.003	66.5838	-95.8313	-191.522	60.5932	-83.4736	-247.288	39.8149	-82.5054	-224.611	45.54	-109.415	-191.107	36.2017	-88.7425	-244.613	12.7228	-78.1265	-225.966	20.5829	-104.124	-193.539	21.9552	-83.4048	-235.533	-12.1573	-65.6863	-218.86	-13.2044	-95.0871	-190.594	-2.40889	-85.3887	-254.372	5.25219	-27.6672	-265.544	-0.686185	1.57655	-259.133	35.9014	-8.87236	
134	1.11667	-232.692	60.6813	16.9405	-209.042	84.7414	8.34431	-183.637	96.507	-10.9677	-173.641	79.1826	-33.1248	-244.453	63.4048	-67.0635	-225.676	72.7599	-95.8308	-196.979	60.8858	-83.3961	-250.559	43.0371	-82.23	-230.255	44.3817	-110.704	-194.465	43.0223	-86.7753	-247.194	14.9088	-79.8948	-227.09	22.8097	-104.994	-196.007	21.0247	-82.075	-239.677	-10.8945	-69.7869	-219.91	-5.85612	-96.8333	-191.815	3.10846	-85.0332	-252.653	5.35	-32.4219	-266.206	1.52466	-2.50647	-260.896	38.2892	-10.43	
135	1.125	-234.848	60.4257	18.3823	-210.015	85.3646	12.0129	-183.199	96.7059	-12.2983	-173.753	79.2473	-36.9031	-247.082	66.013	-71.5291	-228.192	69.5731	-96.287	-197.956	61.2127	-80.0893	-252.575	42.7741	-82.7169	-232.094	47.5594	-109.937	-196.15	39.9876	-84.2212	-248.271	21.2152	-82.6977	-225.704	22.1012	-105.963	-199.1	25.5742	-81.0873	-237.815	-6.97357	-66.9257	-219.833	-4.52784	-97.9397	-191.71	4.21196	-85.4524	-255.485	6.92182	-30.4395	-264.662	-4.05319	-3.9223	-261.541	37.2405	-9.16043	
136	1.13333	-234.7	59.7918	11.728	-209.903	85.7005	6.33986	-184.959	97.5697	-11.434	-177.333	78.1197	-40.3736	-251.453	68.6092	-72.0298	-233.025	72.5458	-96.5979	-202.654	64.5171	-80.8817	-256.617	43.8001	-84.5645	-232.216	49.3009	-110.39	-200.346	48.0147	-84.0378	-249.851	19.1461	-82.912	-231.277	25.4139	-105.868	-201.245	26.3833	-79.2083	-241.02	-5.64409	-74.7255	-219.447	-2.96776	-98.7665	-191.318	10.5581	-80.0151	-257.342	7.16211	-28.4213	-266.227	-4.69763	-2.48914	-264.235	34.5637	-9.81128	
137	1.14167	-236.857	59.3581	11.9374	-209.893	83.3125	6.71532	-185.246	91.4546	-19.8727	-180.933	71.933	-42.7529	-255.901	70.6977	-66.8378	-234.044	81.8715	-92.5029	-204.797	72.7141	-74.5825	-258.545	46.8031	-80.7509	-232.809	54.9987	-108.417	-202.039	48.064	-82.3223	-251.706	20.8055	-83.7412	-228.715	27.8737	-105.219	-203.818	32.2934	-74.4079	-240.801	-0.853106	-76.3735	-215.574	5.87408	-97.0124	-194.115	16.2091	-78.4045	-262.206	6.96374	-29.3492	-266.333	-4.61646	-0.161857	-268.527	37.1614	-7.2479	
138	1.15	-236.518	57.9478	15.4205	-208.136	78.5878	2.70996	-182.357	88.0568	-27.3922	-180.88	65.7811	-48.9199	-257.071	76.2831	-67.2585	-231.387	83.0746	-89.0286	-204.343	73.3994	-65.5271	-259.333	52.0157	-84.1911	-229.074	61.5724	-102.499	-201.812	53.6801	-75.409	-250.99	27.9201	-83.4452	-224.333	37.5765	-100.416	-203.41	32.8761	-71.1092	-239.277	7.41509	-78.769	-210.098	14.2728	-92.9391	-194.209	22.4672	-69.0973	-265.972	7.30696	-33.7583	-268.192	-4.0125	2.34588	-270.596	38.428	-6.3818	
139	1.15833	-234.118	61.1501	13.7686	-203.43	76.4116	-4.11138	-181.568	76.5555	-33.1117	-182.071	56.3245	-49.877	-252.424	81.6226	-65.4594	-222.656	87.2057	-81.512	-202.541	71.1197	-60.4865	-253.784	55.6202	-84.9217	-224.437	64.7625	-97.887	-199.425	55.5768	-66.6292	-243.146	32.3336	-85.4426	-212.539	39.4604	-93.2298	-202.121	37.1665	-58.5496	-235.631	7.35812	-74.7918	-205.378	17.8625	-86.8378	-194.7	21.3979	-54.3329	-264.657	8.79154	-28.2834	-269.555	-2.92339	-2.94591	-270.389	34.7853	-3.48111	
140	1.16667	-230.882	57.593	12.2596	-197.771	70.6109	-5.28534	-176.447	68.0832	-36.6481	-180.955	43.6744	-57.6443	-243.998	78.2376	-66.3384	-212.4	81.0972	-77.7405	-197.239	64.0327	-51.8794	-245.987	57.4754	-78.7164	-212.275	61.4627	-91.4165	-196.738	50.0895	-53.737	-236.493	35.0372	-83.324	-203.23	41.2206	-84.8895	-200.396	35.6777	-50.0477	-228.965	10.1771	-76.3691	-198.055	19.7427	-78.2546	-197.128	22.2647	-47.7034	-262.755	9.90923	-29.6908	-267.036	-3.07486	2.76399	-270.275	39.8177	-4.08033	
141	1.175	-226.962	56.4976	13.5281	-195.811	64.3549	-9.52524	-173.459	64.3301	-39.7434	-178.705	39.9855	-57.6596	-240.298	78.0555	-62.3541	-210.266	79.9141	-74.7261	-194.98	62.9858	-43.1044	-241.019	53.6933	-78.6241	-202.336	60.4357	-82.4702	-193.912	47.2513	-47.6048	-228.416	31.0302	-84.5871	-198.793	34.9019	-81.0941	-197.948	28.9257	-46.7866	-223.019	9.88287	-78.437	-193.312	18.2208	-72.6661	-199.313	17.2531	-35.9502	-260.912	9.98352	-33.0517	-266.329	-4.00835	-1.46626	-265.529	34.8307	-3.1388	
142	1.18333	-225.407	55.6646	15.1006	-194.986	63.0438	-11.6486	-174.655	60.0023	-43.2541	-181.571	35.3812	-60.3782	-241.088	75.42	-63.888	-208.622	74.1967	-75.1136	-196.002	59.1686	-46.1285	-237.833	55.1987	-78.7302	-202.812	54.6292	-83.2743	-197.76	40.6806	-43.3616	-229.191	31.7401	-80.765	-197.38	32.7656	-78.553	-202.935	31.0037	-39.6688	-221.476	8.44398	-77.8368	-193.416	19.3411	-67.7631	-199.435	12.321	-34.9047	-261.79	8.90916	-30.549	-266.039	-6.68101	-1.66418	-266.239	32.3941	-2.11126	
143	1.19167	-227.441	55.935	11.3008	-196.911	61.7379	-13.7674	-176.239	59.6906	-43.772	-183.23	35.0571	-61.233	-242.794	74.288	-65.8005	-212.297	75.3641	-78.3206	-198.022	61.2363	-47.6929	-239.916	51.3725	-83.0188	-204.379	52.5828	-84.1184	-198.94	44.1754	-44.8554	-231.965	29.4905	-82.318	-198.076	32.0601	-78.3113	-200.553	28.5851	-45.3303	-226.478	6.13792	-75.4743	-195.435	18.495	-69.4944	-203.557	10.9734	-35.2475	-264.921	10.3802	-32.1256	-266.034	-7.27518	-0.952517	-265.785	32.0526	-3.44566	
144	1.2	-227.165	54.9568	11.5076	-195.522	65.1437	-14.9284	-176.088	59.4207	-45.3049	-183.747	33.6951	-65.0139	-246.352	73.9447	-66.5563	-214.87	78.6096	-79.322	-197.892	64.4844	-49.1104	-245.02	51.2135	-81.8387	-210.736	54.9381	-90.185	-199.114	46.9383	-49.8815	-233.122	32.1537	-86.0953	-205.345	34.461	-86.6557	-202.273	26.9959	-47.0923	-230.386	9.29649	-74.7274	-198.157	16.8933	-73.9622	-198.843	12.6659	-44.277	-264.677	9.92611	-30.7093	-267.527	-5.84786	0.372998	-266.673	35.831	-5.10454	
145	1.20833	-226.249	57.784	8.82118	-195.12	63.2159	-14.7806	-175.909	56.4406	-47.3293	-183.578	31.8505	-63.8891	-246.621	75.9203	-68.8937	-220.361	79.7614	-83.5559	-197.708	67.3414	-59.7042	-249.613	51.0758	-81.1575	-217.857	56.1218	-95.6356	-197.539	49.1058	-57.4918	-242.274	31.7156	-82.5011	-211.311	34.8848	-91.9385	-202.658	30.4143	-55.3332	-235.59	6.80507	-81.1021	-204.738	15.3391	-84.6831	-196.254	13.3459	-52.8519	-263.082	7.0172	-29.8915	-268.342	-6.55725	0.373086	-266.317	35.818	-1.82371	
